<svg xmlns="http://www.w3.org/2000/svg" version="1.1" xmlns:xlink="http://www.w3.org/1999/xlink" xmlns:svgjs="http://svgjs.dev/svgjs" viewBox="0 0 2400 800"><defs><linearGradient x1="50%" y1="0%" x2="50%" y2="100%" id="sssurf-grad"><stop stop-color="hsla(348, 79%, 81%, 1.00)" stop-opacity="1" offset="0%"></stop><stop stop-color="#f5a9b8ff" stop-opacity="1" offset="100%"></stop></linearGradient></defs><g fill="url(#sssurf-grad)" transform="matrix(1,0,0,1,8.7225341796875,184.96131896972656)"><path d="M-10,10C42.08333333333333,16.25,137.91666666666666,43.958333333333336,240,40C342.08333333333337,36.041666666666664,380,-8.583333333333334,480,-9C580,-9.416666666666666,620,38.833333333333336,720,38C820,37.166666666666664,860,-15.5,960,-13C1060,-10.5,1100,51.25,1200,50C1300,48.75,1340,-17.541666666666668,1440,-19C1540,-20.458333333333332,1580,39.041666666666664,1680,43C1780,46.958333333333336,1820,-3.75,1920,0C2020,3.75,2060,60.791666666666664,2160,61C2260,61.208333333333336,2297.9166666666665,-69.625,2400,1C2502.0833333333335,71.625,3254.1666666666665,212.70833333333331,2650,400C2045.8333333333335,587.2916666666667,156.25,795.8333333333334,-500,900" transform="matrix(1,0,0,1,0,35)" opacity="0.05"></path><path d="M-10,10C42.08333333333333,16.25,137.91666666666666,43.958333333333336,240,40C342.08333333333337,36.041666666666664,380,-8.583333333333334,480,-9C580,-9.416666666666666,620,38.833333333333336,720,38C820,37.166666666666664,860,-15.5,960,-13C1060,-10.5,1100,51.25,1200,50C1300,48.75,1340,-17.541666666666668,1440,-19C1540,-20.458333333333332,1580,39.041666666666664,1680,43C1780,46.958333333333336,1820,-3.75,1920,0C2020,3.75,2060,60.791666666666664,2160,61C2260,61.208333333333336,2297.9166666666665,-69.625,2400,1C2502.0833333333335,71.625,3254.1666666666665,212.70833333333331,2650,400C2045.8333333333335,587.2916666666667,156.25,795.8333333333334,-500,900" transform="matrix(1,0,0,1,0,70)" opacity="0.17"></path><path d="M-10,10C42.08333333333333,16.25,137.91666666666666,43.958333333333336,240,40C342.08333333333337,36.041666666666664,380,-8.583333333333334,480,-9C580,-9.416666666666666,620,38.833333333333336,720,38C820,37.166666666666664,860,-15.5,960,-13C1060,-10.5,1100,51.25,1200,50C1300,48.75,1340,-17.541666666666668,1440,-19C1540,-20.458333333333332,1580,39.041666666666664,1680,43C1780,46.958333333333336,1820,-3.75,1920,0C2020,3.75,2060,60.791666666666664,2160,61C2260,61.208333333333336,2297.9166666666665,-69.625,2400,1C2502.0833333333335,71.625,3254.1666666666665,212.70833333333331,2650,400C2045.8333333333335,587.2916666666667,156.25,795.8333333333334,-500,900" transform="matrix(1,0,0,1,0,105)" opacity="0.29"></path><path d="M-10,10C42.08333333333333,16.25,137.91666666666666,43.958333333333336,240,40C342.08333333333337,36.041666666666664,380,-8.583333333333334,480,-9C580,-9.416666666666666,620,38.833333333333336,720,38C820,37.166666666666664,860,-15.5,960,-13C1060,-10.5,1100,51.25,1200,50C1300,48.75,1340,-17.541666666666668,1440,-19C1540,-20.458333333333332,1580,39.041666666666664,1680,43C1780,46.958333333333336,1820,-3.75,1920,0C2020,3.75,2060,60.791666666666664,2160,61C2260,61.208333333333336,2297.9166666666665,-69.625,2400,1C2502.0833333333335,71.625,3254.1666666666665,212.70833333333331,2650,400C2045.8333333333335,587.2916666666667,156.25,795.8333333333334,-500,900" transform="matrix(1,0,0,1,0,140)" opacity="0.41"></path><path d="M-10,10C42.08333333333333,16.25,137.91666666666666,43.958333333333336,240,40C342.08333333333337,36.041666666666664,380,-8.583333333333334,480,-9C580,-9.416666666666666,620,38.833333333333336,720,38C820,37.166666666666664,860,-15.5,960,-13C1060,-10.5,1100,51.25,1200,50C1300,48.75,1340,-17.541666666666668,1440,-19C1540,-20.458333333333332,1580,39.041666666666664,1680,43C1780,46.958333333333336,1820,-3.75,1920,0C2020,3.75,2060,60.791666666666664,2160,61C2260,61.208333333333336,2297.9166666666665,-69.625,2400,1C2502.0833333333335,71.625,3254.1666666666665,212.70833333333331,2650,400C2045.8333333333335,587.2916666666667,156.25,795.8333333333334,-500,900" transform="matrix(1,0,0,1,0,175)" opacity="0.53"></path><path d="M-10,10C42.08333333333333,16.25,137.91666666666666,43.958333333333336,240,40C342.08333333333337,36.041666666666664,380,-8.583333333333334,480,-9C580,-9.416666666666666,620,38.833333333333336,720,38C820,37.166666666666664,860,-15.5,960,-13C1060,-10.5,1100,51.25,1200,50C1300,48.75,1340,-17.541666666666668,1440,-19C1540,-20.458333333333332,1580,39.041666666666664,1680,43C1780,46.958333333333336,1820,-3.75,1920,0C2020,3.75,2060,60.791666666666664,2160,61C2260,61.208333333333336,2297.9166666666665,-69.625,2400,1C2502.0833333333335,71.625,3254.1666666666665,212.70833333333331,2650,400C2045.8333333333335,587.2916666666667,156.25,795.8333333333334,-500,900" transform="matrix(1,0,0,1,0,210)" opacity="0.64"></path><path d="M-10,10C42.08333333333333,16.25,137.91666666666666,43.958333333333336,240,40C342.08333333333337,36.041666666666664,380,-8.583333333333334,480,-9C580,-9.416666666666666,620,38.833333333333336,720,38C820,37.166666666666664,860,-15.5,960,-13C1060,-10.5,1100,51.25,1200,50C1300,48.75,1340,-17.541666666666668,1440,-19C1540,-20.458333333333332,1580,39.041666666666664,1680,43C1780,46.958333333333336,1820,-3.75,1920,0C2020,3.75,2060,60.791666666666664,2160,61C2260,61.208333333333336,2297.9166666666665,-69.625,2400,1C2502.0833333333335,71.625,3254.1666666666665,212.70833333333331,2650,400C2045.8333333333335,587.2916666666667,156.25,795.8333333333334,-500,900" transform="matrix(1,0,0,1,0,245)" opacity="0.76"></path><path d="M-10,10C42.08333333333333,16.25,137.91666666666666,43.958333333333336,240,40C342.08333333333337,36.041666666666664,380,-8.583333333333334,480,-9C580,-9.416666666666666,620,38.833333333333336,720,38C820,37.166666666666664,860,-15.5,960,-13C1060,-10.5,1100,51.25,1200,50C1300,48.75,1340,-17.541666666666668,1440,-19C1540,-20.458333333333332,1580,39.041666666666664,1680,43C1780,46.958333333333336,1820,-3.75,1920,0C2020,3.75,2060,60.791666666666664,2160,61C2260,61.208333333333336,2297.9166666666665,-69.625,2400,1C2502.0833333333335,71.625,3254.1666666666665,212.70833333333331,2650,400C2045.8333333333335,587.2916666666667,156.25,795.8333333333334,-500,900" transform="matrix(1,0,0,1,0,280)" opacity="0.88"></path><path d="M-10,10C42.08333333333333,16.25,137.91666666666666,43.958333333333336,240,40C342.08333333333337,36.041666666666664,380,-8.583333333333334,480,-9C580,-9.416666666666666,620,38.833333333333336,720,38C820,37.166666666666664,860,-15.5,960,-13C1060,-10.5,1100,51.25,1200,50C1300,48.75,1340,-17.541666666666668,1440,-19C1540,-20.458333333333332,1580,39.041666666666664,1680,43C1780,46.958333333333336,1820,-3.75,1920,0C2020,3.75,2060,60.791666666666664,2160,61C2260,61.208333333333336,2297.9166666666665,-69.625,2400,1C2502.0833333333335,71.625,3254.1666666666665,212.70833333333331,2650,400C2045.8333333333335,587.2916666666667,156.25,795.8333333333334,-500,900" transform="matrix(1,0,0,1,0,315)" opacity="1.00"></path></g></svg>
